<?xml version="1.0" encoding="utf-8"?>
<!-- Generator: Adobe Illustrator 27.0.0, SVG Export Plug-In . SVG Version: 6.00 Build 0)  -->
<svg version="1.1" id="Layer_1" xmlns="http://www.w3.org/2000/svg" xmlns:xlink="http://www.w3.org/1999/xlink" x="0px" y="0px"
	 viewBox="0 0 5736 1240" style="enable-background:new 0 0 5736 1240;" xml:space="preserve">
<style type="text/css">
	.st0{fill:#6900B1;}
</style>
<g>
	<g>
		<g>
			<g>
				<path class="st0" d="M4.6,696.3h332.1c99.4,0,180-80.6,180-180V184.2C233.9,184.2,4.6,413.5,4.6,696.3z"/>
				<path class="st0" d="M927.7,6.4c-380.4-16.1-498,97-603.6,174.9c341.8-174.9,735.1,199,735.1,515.9c0,8.3,0,0,0,0l505.4,0v-33.1
					C1564.1,312.7,1270.7,20.9,927.7,6.4z"/>
			</g>
			<g>
				<g>
					<path d="M1899.4,161.7h237.9c99.4,0,169,60.4,169,141.5c0,62-41.3,110.1-99.4,121.6c71.1,9.9,117,60.4,117,129.3
						c0,84.9-69.6,143-169,143h-255.5V161.7z M2126.6,390.4c49.7,0,84.1-32.1,84.1-77.3c0-44.4-34.4-76.5-84.1-76.5h-130v153.7
						H2126.6z M2143.4,620.7c49,0,82.6-32.1,82.6-78c0-46.7-33.7-78.8-82.6-78.8h-146.9v156.8H2143.4z"/>
					<path d="M2383.7,312.4h94.8l-2.3,105.6c16.8-89.5,80.3-119.3,145.3-106.3v94.1c-74.2-10.7-143,22.9-143,127.7v163.7h-94.8
						V312.4z"/>
					<path d="M2701.4,135c35.2,0,62,26.8,62,61.2c0,35.2-26.8,62-62,62c-34.4,0-61.2-26.8-61.2-62C2640.2,161.7,2667,135,2701.4,135
						z M2654,312.4h94.8v384.7H2654V312.4z"/>
					<path d="M2795.6,504.4c0-117.8,73.4-201.2,176.7-201.2c53.5,0,96.4,22.2,125.4,62V161.7h94.8v450.5v84.9h-44.7
						c-27.7,0-50.2-22.5-50.2-50.2v-2.6c-29.1,39.8-71.9,62-125.4,62C2869,706.3,2795.6,623,2795.6,504.4z M2997.5,628.3
						c62,0,105.6-50.5,105.6-123.9c0-72.7-43.6-123.1-105.6-123.1c-61.2,0-106.3,52-106.3,123.1
						C2891.2,576.3,2936.3,628.3,2997.5,628.3z"/>
					<path d="M3252.5,702.5l55.3-1.8c19.4-0.6,37.8,9.5,46.6,26.8c15.6,30.7,49.6,50,93.9,50c60.4,0,99.4-39,99.4-102.5v-62.7
						c-21.4,40.5-68.1,68.8-122.4,68.8c-102.5,0-183.6-80.3-183.6-190.5c0-106.3,78-189.7,183.6-189.7c55.8,0,104.8,27.5,127.7,71.1
						v-59.7h89.5v346.5c0,122.4-74.2,195-194.3,195C3336.6,854,3258.6,792.8,3252.5,702.5z M3445.2,603.1
						c62,0,108.6-47.4,108.6-112.4c0-62.7-45.1-111.7-108.6-111.7c-60.4,0-108.6,49-108.6,111.7
						C3336.6,553.4,3384.8,603.1,3445.2,603.1z"/>
					<path d="M3691.8,504.4c0-119.3,82.6-205.8,196.6-205.8c133.1,0,204.2,114.7,187.4,234.8h-288.4
						c3.1,59.7,45.1,103.3,103.3,103.3c45.9,0,84.1-26,97.1-65l81.1,12.2c-15.3,71.1-85.7,127-179,127
						C3774.4,710.9,3691.8,624.5,3691.8,504.4z M3983.9,462.3c0-51.2-39-92.6-95.6-92.6c-52.8,0-93.3,37.5-100.2,92.6H3983.9z"/>
					<path d="M4126,312.4h94.8l-2.3,81.8c16.8-56.6,59.7-91,121.6-91c83.4,0,139.2,62,139.2,156.8v237.1h-43.8
						c-28.2,0-51-22.8-51-51V474.6c0-59.7-28.3-94.8-78.8-94.8c-54.3,0-84.9,40.5-84.9,111.7v205.8H4126V312.4z"/>
					<path d="M4526.1,504.4c0-119.3,82.6-205.8,196.6-205.8c133.1,0,204.2,114.7,187.4,234.8h-288.4
						c3.1,59.7,45.1,103.3,103.3,103.3c45.9,0,84.1-26,97.1-65l81.1,12.2c-15.3,71.1-85.7,127-179,127
						C4608.7,710.9,4526.1,624.5,4526.1,504.4z M4818.3,462.3c0-51.2-39-92.6-95.6-92.6c-52.8,0-93.3,37.5-100.2,92.6H4818.3z"/>
					<path d="M5102.6,571.7l-87.2,125.4h-101.7l136.9-193.5l-136.9-191.2H5020l86.4,125.4l87.2-125.4h101l-136.9,192.8l139.2,192
						h-108.6L5102.6,571.7z"/>
					<path d="M5390.6,568.7V391.2H5321v-78.8h69.6v-97.1h94.8v97.1h92.6v78.8h-92.6V561c0,61.2,40.5,65.8,81.1,53.5l0.8,79.5
						C5483.2,717.8,5390.6,694.1,5390.6,568.7z"/>
				</g>
			</g>
		</g>
		<g>
			<g>
				<path d="M1965.8,1105.7l-63.8-103.3h19l57.7,94.2L1965.8,1105.7z M1965.8,1179.6v-85.1h16.2v85.1H1965.8z M1982,1105.7
					l-12.9-9.1l57.7-94.2h19L1982,1105.7z"/>
				<path d="M2121.9,1182.7c-12.2,0-22.9-2.8-32.3-8.5s-16.7-13.5-22-23.4c-5.3-10-8-21.4-8-34.4c0-13,2.6-24.5,7.8-34.4
					c5.2-10,12.5-17.8,21.9-23.4c9.4-5.7,20-8.5,32-8.5c12.2,0,22.9,2.8,32.3,8.5c9.4,5.7,16.7,13.5,21.9,23.4
					c5.2,10,7.8,21.4,7.8,34.4c0,13-2.6,24.5-7.8,34.4c-5.2,10-12.5,17.8-21.8,23.4C2144.6,1179.9,2133.9,1182.7,2121.9,1182.7z
					 M2121.9,1168.8c9.1,0,17.1-2.2,24-6.7c6.9-4.5,12.4-10.6,16.3-18.5c4-7.8,5.9-16.9,5.9-27.2c0-10.3-2-19.4-5.9-27.2
					c-4-7.8-9.5-14-16.6-18.5c-7.1-4.5-15.2-6.7-24.3-6.7c-9.1,0-17.2,2.2-24.2,6.7c-7,4.5-12.5,10.6-16.5,18.5
					c-4,7.8-5.9,16.9-5.9,27.2c0,10.3,2,19.4,6.1,27.2c4,7.8,9.6,14,16.7,18.5C2104.7,1166.5,2112.8,1168.8,2121.9,1168.8z"/>
				<path d="M2210,1117.9v-64.8h15.2v64.8H2210z M2225.2,1117.9c0,14,1.6,24.6,4.9,31.9c3.3,7.3,7.8,12.2,13.5,14.8
					c5.7,2.6,12.1,3.9,19,3.9c12,0,21.3-4.4,28.1-13.3c6.7-8.9,10.1-21.2,10.1-37.1h9.4c0,13.5-1.9,25.1-5.8,34.7
					c-3.9,9.6-9.5,17-17,22.1c-7.4,5.1-16.6,7.7-27.6,7.7c-9.6,0-18.2-2-25.8-5.9c-7.6-4-13.5-10.3-17.7-19c-4.2-8.7-6.3-20-6.3-34
					v-5.8H2225.2z M2301.9,1179.6l-1-23.3v-103.3h15.2v126.6H2301.9z"/>
				<path d="M2354.1,1179.6v-126.6h15.2v126.6H2354.1z M2360.4,1110.3c0-13.7,2.6-24.7,7.7-33.2c5.1-8.4,11.8-14.6,20-18.6
					c8.2-4,16.8-5.9,25.9-5.9v13.9c-7.4,0-14.6,1.3-21.4,3.9c-6.8,2.6-12.4,7-16.8,13.2c-4.4,6.2-6.6,14.6-6.6,25.2L2360.4,1110.3z"
					/>
				<path d="M2505.2,1179.6v-177.2h54.4c11.1,0,21,2.3,29.6,7c8.6,4.6,15.3,11.1,20.1,19.4c4.8,8.3,7.2,17.8,7.2,28.6
					c0,10.6-2.2,20.1-6.5,28.4c-4.3,8.3-10.2,14.8-17.7,19.5c-7.5,4.7-16.2,7.1-25.9,7.1h-45.1v67.3H2505.2z M2521.4,1097.4h45.1
					c10,0,18.1-3.7,24.6-11.1c6.4-7.4,9.6-17,9.6-28.9c0-12-3.8-21.7-11.5-29.1c-7.7-7.4-17.5-11.1-29.5-11.1h-38.2V1097.4z"/>
				<path d="M2682.9,1182.7c-14.9,0-26.5-3.4-34.8-10.3s-12.5-16.3-12.5-28.5c0-12.5,4.2-22.2,12.5-29.1c8.4-6.9,20-10.4,34.8-10.4
					h38v13.9h-35.9c-12.2,0-20.9,2.2-26.2,6.7c-5.3,4.5-8,10.8-8,18.9c0,7.8,2.7,13.8,8.2,18.2c5.5,4.4,13.1,6.6,22.9,6.6
					c8.1,0,15.1-1.6,20.9-4.9s10.3-8.1,13.3-14.6c3-6.4,4.6-14.3,4.6-23.8h8.9c0,17.2-4.1,31.1-12.3,41.5
					C2709,1177.5,2697.6,1182.7,2682.9,1182.7z M2721.9,1179.6l-1.3-19v-48.9c0-10.8-1.2-19.7-3.7-26.7c-2.4-7-6.2-12.3-11.4-15.8
					c-5.1-3.5-11.9-5.3-20.1-5.3c-7.6,0-14,1.5-19.1,4.6c-5.2,3-9.4,7.8-12.8,14.2l-13.7-6.1c3.5-6.1,7.6-11.1,12-14.9
					c4.5-3.9,9.5-6.8,15.1-8.7c5.6-1.9,11.7-2.9,18.5-2.9c11.3,0,20.7,2.3,28.1,6.8c7.4,4.6,13,11.4,16.7,20.5
					c3.7,9.1,5.6,20.6,5.6,34.4v67.8H2721.9z"/>
				<path d="M2770,1179.6v-126.6h15.2v126.6H2770z M2776.3,1110.3c0-13.7,2.6-24.7,7.7-33.2c5.1-8.4,11.8-14.6,20-18.6
					c8.2-4,16.8-5.9,25.9-5.9v13.9c-7.4,0-14.6,1.3-21.4,3.9c-6.8,2.6-12.4,7-16.8,13.2c-4.4,6.2-6.6,14.6-6.6,25.2L2776.3,1110.3z"
					/>
				<path d="M2837.6,1067v-13.9h78v13.9H2837.6z M2897.3,1182.7c-11.6,0-20.8-3.1-27.3-9.2c-6.6-6.2-9.9-14.9-9.9-26.2v-133.7h15.2
					v133.7c0,6.8,1.9,12,5.8,15.8c3.9,3.8,9.3,5.7,16.2,5.7c2,0,4-0.3,5.9-0.9c1.9-0.6,4.8-2.2,8.5-4.7l6.3,13.2
					c-4.6,2.7-8.4,4.4-11.4,5.2C2903.6,1182.3,2900.5,1182.7,2897.3,1182.7z"/>
				<path d="M2944.6,1179.6v-126.6h14.2l1,23.3v103.3H2944.6z M3035.5,1114.8c0-14-1.6-24.6-4.9-31.9c-3.3-7.3-7.8-12.2-13.4-14.8
					c-5.7-2.6-12-3.9-19.1-3.9c-12,0-21.4,4.4-28.1,13.3c-6.8,8.9-10.1,21.2-10.1,37.1h-9.4c0-13.5,1.9-25.1,5.8-34.7
					c3.9-9.6,9.6-17,17.1-22.2c7.5-5.1,16.7-7.7,27.5-7.7c9.8,0,18.4,2,25.9,5.9c7.5,4,13.4,10.3,17.7,18.9c4.3,8.6,6.4,20,6.2,34.2
					v5.8H3035.5z M3035.5,1179.6v-64.8h15.2v64.8H3035.5z"/>
				<path d="M3139.5,1182.7c-12.2,0-22.9-2.8-32.3-8.5s-16.7-13.5-22-23.4c-5.3-10-8-21.4-8-34.4c0-13,2.6-24.5,7.8-34.4
					c5.2-10,12.4-17.8,21.6-23.4c9.2-5.7,19.7-8.5,31.5-8.5c12,0,22.1,2.9,30.5,8.7c8.4,5.8,14.7,13.8,19.1,24
					c4.4,10.2,6.6,22,6.6,35.3h-108.1l5.8-4.8c0,11.6,1.9,21.6,5.8,29.9c3.9,8.3,9.4,14.6,16.6,19c7.2,4.4,15.5,6.6,24.9,6.6
					c9.8,0,18.1-2.4,24.9-7.2s12.2-11,16.1-18.6l12.7,7.8c-3.2,6.2-7.4,11.8-12.5,16.6c-5.2,4.8-11.2,8.6-18.1,11.3
					C3155.7,1181.3,3148,1182.7,3139.5,1182.7z M3093.5,1108.8l-6.3-4.6h97.5l-6.3,4.8c0-8.9-1.6-16.8-4.9-23.5
					c-3.3-6.7-7.9-12-13.8-15.8c-5.9-3.8-13-5.7-21.3-5.7c-8.1,0-15.6,1.9-22.4,5.7c-6.8,3.8-12.3,9-16.3,15.7
					C3095.5,1092,3093.5,1099.8,3093.5,1108.8z"/>
				<path d="M3222.3,1179.6v-126.6h15.2v126.6H3222.3z M3228.7,1110.3c0-13.7,2.6-24.7,7.7-33.2c5.1-8.4,11.8-14.6,20-18.6
					c8.2-4,16.8-5.9,25.9-5.9v13.9c-7.4,0-14.6,1.3-21.4,3.9c-6.8,2.6-12.4,7-16.8,13.2c-4.4,6.2-6.6,14.6-6.6,25.2L3228.7,1110.3z"
					/>
				<path d="M3376,1020.2c-2.7,0-5.1-1-7.1-3c-2-2-3-4.4-3-7.1c0-2.9,1-5.3,3-7.2c2-1.9,4.4-2.9,7.1-2.9c2.9,0,5.3,1,7.2,2.9
					c1.9,1.9,2.9,4.3,2.9,7.2c0,2.7-1,5.1-2.9,7.1C3381.3,1019.2,3378.8,1020.2,3376,1020.2z M3368.1,1179.6v-126.6h15.2v126.6
					H3368.1z"/>
				<path d="M3422.8,1179.6v-126.6h14.2l1,23.3v103.3H3422.8z M3513.7,1114.8c0-14-1.6-24.6-4.9-31.9c-3.3-7.3-7.8-12.2-13.4-14.8
					c-5.7-2.6-12-3.9-19.1-3.9c-12,0-21.4,4.4-28.1,13.3c-6.8,8.9-10.1,21.2-10.1,37.1h-9.4c0-13.5,1.9-25.1,5.8-34.7
					c3.9-9.6,9.6-17,17.1-22.2c7.5-5.1,16.7-7.7,27.5-7.7c9.8,0,18.4,2,25.9,5.9c7.5,4,13.4,10.3,17.7,18.9c4.3,8.6,6.4,20,6.2,34.2
					v5.8H3513.7z M3513.7,1179.6v-64.8h15.2v64.8H3513.7z"/>
				<path d="M3632.7,1179.6v-177.2h52.9c16,0,30.2,3.8,42.5,11.3c12.3,7.5,22,17.9,29,31.3c7,13.3,10.5,28.7,10.5,46.1
					c0,17.2-3.5,32.5-10.5,45.8c-7,13.3-16.7,23.8-29,31.4c-12.3,7.6-26.5,11.4-42.5,11.4H3632.7z M3648.9,1165h36.7
					c9.1,0,17.6-1.9,25.6-5.7c7.9-3.8,14.9-9.1,21-15.9c6.1-6.8,10.8-14.7,14.2-23.7c3.4-8.9,5.1-18.5,5.1-28.6
					c0-10.1-1.7-19.7-5.1-28.6c-3.4-8.9-8.1-16.8-14.2-23.7c-6.1-6.8-13.1-12.2-21-15.9c-7.9-3.8-16.5-5.7-25.6-5.7h-36.7V1165z"/>
				<path d="M3808.1,1020.2c-2.7,0-5.1-1-7.1-3c-2-2-3-4.4-3-7.1c0-2.9,1-5.3,3-7.2c2-1.9,4.4-2.9,7.1-2.9c2.9,0,5.3,1,7.2,2.9
					c1.9,1.9,2.9,4.3,2.9,7.2c0,2.7-1,5.1-2.9,7.1C3813.4,1019.2,3811,1020.2,3808.1,1020.2z M3800.2,1179.6v-126.6h15.2v126.6
					H3800.2z"/>
				<path d="M3904.5,1179.6c-11.1,0-21-2.8-29.6-8.4c-8.6-5.6-15.4-13.3-20.3-23.2c-4.9-9.9-7.3-21.1-7.3-33.8s2.4-23.8,7.3-33.4
					c4.9-9.6,11.6-17.2,20.3-22.7c8.6-5.5,18.5-8.2,29.6-8.2c10.8,0,20.3,2.7,28.5,8.2c8.2,5.5,14.6,13,19.2,22.7
					c4.6,9.6,7,20.8,7,33.4s-2.3,23.9-7,33.8c-4.6,9.9-11.1,17.6-19.2,23.2C3924.8,1176.9,3915.3,1179.6,3904.5,1179.6z
					 M3903.3,1233.3c-7.6,0-14.6-0.8-21-2.5c-6.4-1.7-11.8-3.5-16.2-5.4c-4.4-1.9-7.4-3.3-9.1-4.2l5.6-12.7c2,1.2,5.1,2.7,9.2,4.4
					c4.1,1.8,8.9,3.3,14.4,4.6c5.5,1.3,11.2,1.9,17.1,1.9c8.8,0,16.6-1.8,23.5-5.3c6.9-3.5,12.4-9.1,16.3-16.7
					c4-7.6,5.9-17.4,5.9-29.4v-114.9h15.2V1168c0,14.7-2.7,26.9-8.2,36.6c-5.5,9.7-12.9,16.9-22.1,21.6
					C3924.6,1230.9,3914.4,1233.3,3903.3,1233.3z M3907.6,1166.2c8.1,0,15.3-2.2,21.5-6.7c6.2-4.5,11.1-10.6,14.7-18.4
					c3.5-7.8,5.3-16.7,5.3-26.8c0-10-1.8-18.8-5.3-26.5c-3.5-7.7-8.4-13.7-14.7-18.1c-6.2-4.4-13.5-6.6-21.8-6.6
					c-8.8,0-16.5,2.2-23.3,6.6c-6.8,4.4-12,10.4-15.8,18.1c-3.8,7.7-5.7,16.5-5.7,26.5c0,10.1,1.9,19.1,5.8,26.8
					c3.9,7.8,9.2,13.9,15.9,18.4C3891,1164,3898.8,1166.2,3907.6,1166.2z"/>
				<path d="M4011.1,1020.2c-2.7,0-5.1-1-7.1-3c-2-2-3-4.4-3-7.1c0-2.9,1-5.3,3-7.2c2-1.9,4.4-2.9,7.1-2.9c2.9,0,5.3,1,7.2,2.9
					c1.9,1.9,2.9,4.3,2.9,7.2c0,2.7-1,5.1-2.9,7.1C4016.4,1019.2,4014,1020.2,4011.1,1020.2z M4003.2,1179.6v-126.6h15.2v126.6
					H4003.2z"/>
				<path d="M4044,1067v-13.9h78v13.9H4044z M4103.7,1182.7c-11.6,0-20.8-3.1-27.3-9.2c-6.6-6.2-9.9-14.9-9.9-26.2v-133.7h15.2
					v133.7c0,6.8,1.9,12,5.8,15.8c3.9,3.8,9.3,5.7,16.2,5.7c2,0,4-0.3,5.9-0.9c1.9-0.6,4.8-2.2,8.5-4.7l6.3,13.2
					c-4.6,2.7-8.4,4.4-11.4,5.2C4110.1,1182.3,4106.9,1182.7,4103.7,1182.7z"/>
				<path d="M4190.8,1182.7c-14.9,0-26.5-3.4-34.8-10.3s-12.5-16.3-12.5-28.5c0-12.5,4.2-22.2,12.5-29.1c8.4-6.9,20-10.4,34.8-10.4
					h38v13.9h-35.9c-12.2,0-20.9,2.2-26.2,6.7c-5.3,4.5-8,10.8-8,18.9c0,7.8,2.7,13.8,8.2,18.2c5.5,4.4,13.1,6.6,22.9,6.6
					c8.1,0,15.1-1.6,20.9-4.9s10.3-8.1,13.3-14.6c3-6.4,4.6-14.3,4.6-23.8h8.9c0,17.2-4.1,31.1-12.3,41.5
					C4216.9,1177.5,4205.5,1182.7,4190.8,1182.7z M4229.8,1179.6l-1.3-19v-48.9c0-10.8-1.2-19.7-3.7-26.7c-2.4-7-6.2-12.3-11.4-15.8
					c-5.1-3.5-11.9-5.3-20.1-5.3c-7.6,0-14,1.5-19.1,4.6c-5.2,3-9.4,7.8-12.8,14.2l-13.7-6.1c3.5-6.1,7.6-11.1,12-14.9
					c4.5-3.9,9.5-6.8,15.1-8.7c5.6-1.9,11.7-2.9,18.5-2.9c11.3,0,20.7,2.3,28.1,6.8c7.4,4.6,13,11.4,16.7,20.5
					c3.7,9.1,5.6,20.6,5.6,34.4v67.8H4229.8z"/>
				<path d="M4277.9,1179.6v-177.2h15.2v177.2H4277.9z"/>
				<path d="M4400.7,1179.6v-177.2h54.4c11.1,0,21,2.2,29.6,6.7c8.6,4.5,15.3,10.6,20.1,18.5c4.8,7.8,7.2,16.9,7.2,27.2
					c0,10.1-2.7,19.2-8,27.1c-5.3,7.9-12.5,14.1-21.6,18.6c-9.1,4.5-19.3,6.7-30.6,6.7h-34.9v72.4H4400.7z M4416.9,1092.3h42.5
					c6.7,0,12.9-1.6,18.4-4.8c5.5-3.2,9.9-7.6,13.3-13.3c3.4-5.7,5.1-12.1,5.1-19.4c0-11.1-3.8-20.2-11.5-27.2
					c-7.7-7-17.5-10.5-29.5-10.5h-38.2V1092.3z M4501.4,1179.6l-43-73.4l13.4-7.8l47.3,81.3H4501.4z"/>
				<path d="M4605.5,1182.7c-12.2,0-22.9-2.8-32.3-8.5s-16.7-13.5-22-23.4c-5.3-10-8-21.4-8-34.4c0-13,2.6-24.5,7.8-34.4
					c5.2-10,12.4-17.8,21.6-23.4c9.2-5.7,19.7-8.5,31.5-8.5c12,0,22.1,2.9,30.5,8.7c8.4,5.8,14.7,13.8,19.1,24
					c4.4,10.2,6.6,22,6.6,35.3h-108.1l5.8-4.8c0,11.6,1.9,21.6,5.8,29.9c3.9,8.3,9.4,14.6,16.6,19c7.2,4.4,15.5,6.6,24.9,6.6
					c9.8,0,18.1-2.4,24.9-7.2s12.2-11,16.1-18.6l12.7,7.8c-3.2,6.2-7.4,11.8-12.5,16.6c-5.2,4.8-11.2,8.6-18.1,11.3
					C4621.6,1181.3,4613.9,1182.7,4605.5,1182.7z M4559.4,1108.8l-6.3-4.6h97.5l-6.3,4.8c0-8.9-1.6-16.8-4.9-23.5
					c-3.3-6.7-7.9-12-13.8-15.8c-5.9-3.8-13-5.7-21.3-5.7c-8.1,0-15.6,1.9-22.4,5.7c-6.8,3.8-12.3,9-16.3,15.7
					C4561.4,1092,4559.4,1099.8,4559.4,1108.8z"/>
				<path d="M4728,1182.7c-14.9,0-26.5-3.4-34.8-10.3s-12.5-16.3-12.5-28.5c0-12.5,4.2-22.2,12.5-29.1c8.4-6.9,20-10.4,34.8-10.4h38
					v13.9H4730c-12.2,0-20.9,2.2-26.2,6.7c-5.3,4.5-8,10.8-8,18.9c0,7.8,2.7,13.8,8.2,18.2c5.5,4.4,13.1,6.6,22.9,6.6
					c8.1,0,15.1-1.6,20.9-4.9s10.3-8.1,13.3-14.6c3-6.4,4.6-14.3,4.6-23.8h8.9c0,17.2-4.1,31.1-12.3,41.5
					C4754.1,1177.5,4742.7,1182.7,4728,1182.7z M4767,1179.6l-1.3-19v-48.9c0-10.8-1.2-19.7-3.7-26.7c-2.4-7-6.2-12.3-11.4-15.8
					c-5.1-3.5-11.9-5.3-20.1-5.3c-7.6,0-14,1.5-19.1,4.6c-5.2,3-9.4,7.8-12.8,14.2l-13.7-6.1c3.5-6.1,7.6-11.1,12-14.9
					c4.5-3.9,9.5-6.8,15.1-8.7c5.6-1.9,11.7-2.9,18.5-2.9c11.3,0,20.7,2.3,28.1,6.8c7.4,4.6,13,11.4,16.7,20.5
					c3.7,9.1,5.6,20.6,5.6,34.4v67.8H4767z"/>
				<path d="M4815.1,1179.6v-177.2h15.2v177.2H4815.1z"/>
				<path d="M4877.1,1020.2c-2.7,0-5.1-1-7.1-3c-2-2-3-4.4-3-7.1c0-2.9,1-5.3,3-7.2c2-1.9,4.4-2.9,7.1-2.9c2.9,0,5.3,1,7.2,2.9
					c1.9,1.9,2.9,4.3,2.9,7.2c0,2.7-1,5.1-2.9,7.1C4882.3,1019.2,4879.9,1020.2,4877.1,1020.2z M4869.2,1179.6v-126.6h15.2v126.6
					H4869.2z"/>
				<path d="M4917.6,1179.6v-13.2l79.5-99.5h-79.5v-13.9h99.7v12.4l-79.7,100.2h80.5v13.9H4917.6z"/>
				<path d="M5089.5,1182.7c-14.9,0-26.5-3.4-34.8-10.3s-12.5-16.3-12.5-28.5c0-12.5,4.2-22.2,12.5-29.1c8.4-6.9,20-10.4,34.8-10.4
					h38v13.9h-35.9c-12.2,0-20.9,2.2-26.2,6.7c-5.3,4.5-8,10.8-8,18.9c0,7.8,2.7,13.8,8.2,18.2c5.5,4.4,13.1,6.6,22.9,6.6
					c8.1,0,15.1-1.6,20.9-4.9s10.3-8.1,13.3-14.6c3-6.4,4.6-14.3,4.6-23.8h8.9c0,17.2-4.1,31.1-12.3,41.5
					C5115.6,1177.5,5104.1,1182.7,5089.5,1182.7z M5128.4,1179.6l-1.3-19v-48.9c0-10.8-1.2-19.7-3.7-26.7c-2.4-7-6.2-12.3-11.4-15.8
					c-5.1-3.5-11.9-5.3-20.1-5.3c-7.6,0-14,1.5-19.1,4.6c-5.2,3-9.4,7.8-12.8,14.2l-13.7-6.1c3.5-6.1,7.6-11.1,12-14.9
					c4.5-3.9,9.5-6.8,15.1-8.7c5.6-1.9,11.7-2.9,18.5-2.9c11.3,0,20.7,2.3,28.1,6.8c7.4,4.6,13,11.4,16.7,20.5
					c3.7,9.1,5.6,20.6,5.6,34.4v67.8H5128.4z"/>
				<path d="M5162.6,1067v-13.9h78v13.9H5162.6z M5222.4,1182.7c-11.6,0-20.8-3.1-27.3-9.2c-6.6-6.2-9.9-14.9-9.9-26.2v-133.7h15.2
					v133.7c0,6.8,1.9,12,5.8,15.8c3.9,3.8,9.3,5.7,16.2,5.7c2,0,4-0.3,5.9-0.9c1.9-0.6,4.8-2.2,8.5-4.7l6.3,13.2
					c-4.6,2.7-8.4,4.4-11.4,5.2C5228.7,1182.3,5225.6,1182.7,5222.4,1182.7z"/>
				<path d="M5278.6,1020.2c-2.7,0-5.1-1-7.1-3c-2-2-3-4.4-3-7.1c0-2.9,1-5.3,3-7.2c2-1.9,4.4-2.9,7.1-2.9c2.9,0,5.3,1,7.2,2.9
					c1.9,1.9,2.9,4.3,2.9,7.2c0,2.7-1,5.1-2.9,7.1C5283.8,1019.2,5281.4,1020.2,5278.6,1020.2z M5270.7,1179.6v-126.6h15.2v126.6
					H5270.7z"/>
				<path d="M5380.1,1182.7c-12.2,0-22.9-2.8-32.3-8.5s-16.7-13.5-22-23.4c-5.3-10-8-21.4-8-34.4c0-13,2.6-24.5,7.8-34.4
					c5.2-10,12.5-17.8,21.9-23.4c9.4-5.7,20-8.5,32-8.5c12.2,0,22.9,2.8,32.3,8.5c9.4,5.7,16.7,13.5,21.9,23.4
					c5.2,10,7.8,21.4,7.8,34.4c0,13-2.6,24.5-7.8,34.4c-5.2,10-12.5,17.8-21.8,23.4C5402.7,1179.9,5392,1182.7,5380.1,1182.7z
					 M5380.1,1168.8c9.1,0,17.1-2.2,24-6.7c6.9-4.5,12.4-10.6,16.3-18.5c4-7.8,5.9-16.9,5.9-27.2c0-10.3-2-19.4-5.9-27.2
					c-4-7.8-9.5-14-16.6-18.5c-7.1-4.5-15.2-6.7-24.3-6.7c-9.1,0-17.2,2.2-24.2,6.7c-7,4.5-12.5,10.6-16.5,18.5
					c-4,7.8-5.9,16.9-5.9,27.2c0,10.3,2,19.4,6.1,27.2c4,7.8,9.6,14,16.7,18.5C5362.8,1166.5,5370.9,1168.8,5380.1,1168.8z"/>
				<path d="M5471.9,1179.6v-126.6h14.2l1,23.3v103.3H5471.9z M5562.8,1114.8c0-14-1.6-24.6-4.9-31.9c-3.3-7.3-7.8-12.2-13.4-14.8
					c-5.7-2.6-12-3.9-19.1-3.9c-12,0-21.4,4.4-28.1,13.3c-6.8,8.9-10.1,21.2-10.1,37.1h-9.4c0-13.5,1.9-25.1,5.8-34.7
					c3.9-9.6,9.6-17,17.1-22.2c7.5-5.1,16.7-7.7,27.5-7.7c9.8,0,18.4,2,25.9,5.9c7.5,4,13.4,10.3,17.7,18.9c4.3,8.6,6.4,20,6.2,34.2
					v5.8H5562.8z M5562.8,1179.6v-64.8h15.2v64.8H5562.8z"/>
			</g>
		</g>
	</g>
	<g>
		<g>
			<path d="M5628.8,276.9v-47.4h-17v-7h41.8v7h-17v47.4H5628.8z"/>
			<path d="M5661.4,276.9v-54.4h8.1l18,26.7l18-26.7h8.1v54.4h-7.6v-42.1l-18.5,27.3l-18.4-27.2v42.1H5661.4z"/>
		</g>
	</g>
	<g>
		<g>
			<path d="M5628.8,1053.1v-47.4h-17v-7h41.8v7h-17v47.4H5628.8z"/>
			<path d="M5661.4,1053.1v-54.4h8.1l18,26.7l18-26.7h8.1v54.4h-7.6v-42.1l-18.5,27.3L5669,1011v42.1H5661.4z"/>
		</g>
	</g>
</g>
</svg>
